<svg xmlns="http://www.w3.org/2000/svg" viewBox="0 0 349.96 332.23"><defs><style>.cls-1{fill:#27201e;}</style></defs><g id="Layer_2" data-name="Layer 2"><g id="Layer_1-2" data-name="Layer 1"><path class="cls-1" d="M0,257.78a.88.88,0,0,1,.84-.89H11.62a16.4,16.4,0,1,1,0,32.8H.84A.88.88,0,0,1,0,288.8Zm11,27.46a12,12,0,0,0,0-23.9H4.78v23.9Z"/><path class="cls-1" d="M44.18,257.78a.89.89,0,0,1,.89-.89H57.82a10.12,10.12,0,0,1,10.22,10c0,4.31-2.86,7.87-6.94,9.51l6.42,11.91a.88.88,0,0,1-.8,1.35H63.07a.85.85,0,0,1-.75-.42l-6.23-12.42H49V288.8a.92.92,0,0,1-.89.89h-3a.89.89,0,0,1-.89-.89Zm13.27,15A5.81,5.81,0,0,0,63.16,267a5.74,5.74,0,0,0-5.71-5.57H49.1v11.38Z"/><path class="cls-1" d="M80.31,288.48l14.38-31.54a1.12,1.12,0,0,1,.8-.52H96a1.1,1.1,0,0,1,.79.52l14.3,31.54a.83.83,0,0,1-.8,1.21h-3a1.1,1.1,0,0,1-1.08-.7l-2.9-6.42H88c-.94,2.16-1.92,4.27-2.86,6.42a1.16,1.16,0,0,1-1.07.7h-3A.82.82,0,0,1,80.31,288.48Zm21.23-9.94L95.77,265.7h-.23l-5.72,12.84Z"/><path class="cls-1" d="M139.39,256.42a17,17,0,0,1,11.39,4.36.91.91,0,0,1,.05,1.31c-.71.75-1.41,1.45-2.11,2.2-.38.43-.75.38-1.22,0a12.49,12.49,0,0,0-8-3.19,12.17,12.17,0,0,0,0,24.32,16.48,16.48,0,0,0,7-1.59v-5.25H142a.84.84,0,0,1-.89-.84V275a.86.86,0,0,1,.89-.89h8.53a.88.88,0,0,1,.84.89c0,3.75,0,7.59,0,11.34a1.16,1.16,0,0,1-.38.75,23.4,23.4,0,0,1-11.62,3.09,16.87,16.87,0,1,1,0-33.74Z"/><path class="cls-1" d="M182.55,256.42a16.87,16.87,0,1,1-16.83,16.92A16.85,16.85,0,0,1,182.55,256.42Zm0,29.06a12.19,12.19,0,1,0-12.14-12.14A12.18,12.18,0,0,0,182.55,285.48Z"/><path class="cls-1" d="M215.48,257.27a.88.88,0,0,1,.89-.85h1.17L237.88,280h.05V257.78a.89.89,0,0,1,.89-.89h3a.92.92,0,0,1,.89.89v31.54a.88.88,0,0,1-.89.84H240.6L220.26,266h0V288.8a.89.89,0,0,1-.89.89h-2.95a.92.92,0,0,1-.89-.89Z"/><path class="cls-1" d="M261.16,257.78a.89.89,0,0,1,.89-.89H280.8a.89.89,0,0,1,.89.89v2.63a.9.9,0,0,1-.89.89H266v10.82H278.5a.92.92,0,0,1,.89.89v2.58a.92.92,0,0,1-.89.89H266V288.8a.92.92,0,0,1-.89.89h-3.05a.89.89,0,0,1-.89-.89Z"/><path class="cls-1" d="M297.05,257.78a.89.89,0,0,1,.89-.89H301a.92.92,0,0,1,.89.89v27.56h12.7a.89.89,0,0,1,.89.89v2.57a.89.89,0,0,1-.89.89H297.94a.89.89,0,0,1-.89-.89Z"/><path class="cls-1" d="M333.84,273.9l-11-15.65a.87.87,0,0,1,.75-1.36h3.47a1,1,0,0,1,.75.42l8.48,11.95,8.48-11.95a1,1,0,0,1,.75-.42h3.52a.87.87,0,0,1,.74,1.36l-11.1,15.6V288.8a.92.92,0,0,1-.89.89h-3.09a.89.89,0,0,1-.89-.89Z"/><path class="cls-1" d="M166.13,62.73c-6.6-14.92,11.45-25.36,14.13-39.16,2.92,14.11,22.23,25.59,13.3,40.63C208.29,47,182.05,31,180.79,13.34c4.43,12.1,14.13,20.89,19.73,32.25,5.77,12.53-4.12,27.67-17.54,28.62A21.23,21.23,0,0,1,159.67,57c-2.23-12.32,8.63-21.3,15-30.54C169.32,37.58,156.53,50.4,166.13,62.73Zm-6.76,8.11c-21.05-11.68-46.46-13.83-66-13.25a94.1,94.1,0,0,1,167.45,1.7c-29.24-2.81-62.15,5.39-75.35,30.28,25-24.78,63.36-27.74,95.69-17.74-6.65,7.88-18.73,14.31-31,16,12.35,3,36.43-4.8,47.69-17.48-7.73-4.61-17.64-8-28.41-9.89A101.4,101.4,0,0,0,85,58a228.11,228.11,0,0,0-22.64,2.79c7.38,10.6,16.26,20,29,23.67a47.91,47.91,0,0,0,21.54.85C91.81,81.32,86.69,76,76.3,66c42.57-6.57,101.89,6.17,100.72,59.45-.87,21.45-13.19,46.75-19.09,68.3l-.74-.1a94.46,94.46,0,0,1-68.65-59c28-2.11,51.76-13.32,64.61-21.91-20.46-7-43.29-4.25-63,3.87,0,.09,35.3-4.09,41.61-1.2-9.35,6.16-55.06,18.61-78.26,8.9C83.61,99.71,126.39,91.34,163,105.14,124.3,73.42,70.29,96.73,38.39,127.29v.18A113.19,113.19,0,0,0,80.93,135a101.76,101.76,0,0,0,75.28,65.85c-.06.27-.13.55-.18.82-2.18,11.13,2.87,28.08,4.92,32.85,0-1.59,1.47-24.16,2.24-27.55,5-25.26,20.78-47.21,24.54-72.74C190.44,114.11,187.57,86.48,159.37,70.84Zm152.2,66.43c-26.79-36.65-77.78-61.07-120.51-36.69l.13.19c37.73-7.94,80.26,2.33,106.28,31.82-25.28,4.72-53.19-.65-72.61-18.16,14.94-.32,24.53,3.25,36.55,5.92-18.13-10.12-40.13-15.61-60.56-10.08,17.66,18.87,40.92,26.79,61.79,29.47a94.33,94.33,0,0,1-81.25,55.77c6-15.22,17.8-48.58,14-66.53l-.24,0c-2.81,31.73-24.66,58.5-26.51,90.34,3.51-4.92,9.49-15.88,9.49-15.88l.24-.57a101.59,101.59,0,0,0,91.85-62.38C289.36,141.91,305.44,139.21,311.57,137.27Z"/><path class="cls-1" d="M65.88,310.78a.58.58,0,0,1,.59-.59h7.07a6.92,6.92,0,1,1,0,13.84h-4.5v7.3a.61.61,0,0,1-.59.59h-2a.58.58,0,0,1-.59-.59ZM73.36,321a4,4,0,0,0,3.94-4,3.82,3.82,0,0,0-3.94-3.72H69.07V321Z"/><path class="cls-1" d="M87.42,310.78a.59.59,0,0,1,.59-.59h8.44a6.69,6.69,0,0,1,6.76,6.64,6.87,6.87,0,0,1-4.59,6.3l4.25,7.89a.59.59,0,0,1-.52.9H99.93a.58.58,0,0,1-.5-.28l-4.13-8.23H90.61v7.92a.61.61,0,0,1-.59.59H88a.59.59,0,0,1-.59-.59Zm8.78,10A3.85,3.85,0,0,0,100,316.9a3.81,3.81,0,0,0-3.79-3.7H90.68v7.54Z"/><path class="cls-1" d="M120.72,309.88a11.18,11.18,0,1,1-11.14,11.21A11.16,11.16,0,0,1,120.72,309.88Zm0,19.24a8.07,8.07,0,1,0-8-8A8.06,8.06,0,0,0,120.72,329.12Z"/><path class="cls-1" d="M149.06,309.88a10.77,10.77,0,0,1,7.51,2.89.58.58,0,0,1,0,.87L155.24,315c-.22.28-.5.28-.78,0a8.42,8.42,0,0,0-5.37-2.08,8.06,8.06,0,0,0,0,16.11,8.29,8.29,0,0,0,5.33-2.05.59.59,0,0,1,.75,0l1.43,1.4a.6.6,0,0,1,0,.84,10.63,10.63,0,0,1-7.54,3,11.18,11.18,0,1,1,0-22.35Z"/><path class="cls-1" d="M164.15,310.78a.59.59,0,0,1,.59-.59h12.41a.58.58,0,0,1,.59.59v1.74a.58.58,0,0,1-.59.59h-9.8v6.33h8.28a.61.61,0,0,1,.59.59v1.74a.59.59,0,0,1-.59.59h-8.28V329h9.8a.58.58,0,0,1,.59.59v1.71a.58.58,0,0,1-.59.59H164.74a.59.59,0,0,1-.59-.59Z"/><path class="cls-1" d="M184.14,328.78c.28-.4.53-.87.81-1.27a.7.7,0,0,1,1.05-.25c.19.16,2.58,2.14,5,2.14,2.14,0,3.5-1.3,3.5-2.88,0-1.86-1.61-3-4.68-4.32s-5.65-3-5.65-6.58c0-2.42,1.86-5.74,6.8-5.74a10.59,10.59,0,0,1,5.74,1.83.75.75,0,0,1,.18,1.06c-.24.37-.52.81-.77,1.18a.74.74,0,0,1-1.09.31,9.49,9.49,0,0,0-4.19-1.55c-2.61,0-3.51,1.64-3.51,2.79,0,1.77,1.37,2.85,3.95,3.91,3.6,1.46,6.67,3.17,6.67,6.95,0,3.23-2.89,5.87-6.92,5.87a10.11,10.11,0,0,1-6.68-2.45A.66.66,0,0,1,184.14,328.78Z"/><path class="cls-1" d="M203.91,328.78c.28-.4.53-.87.81-1.27a.7.7,0,0,1,1.05-.25c.19.16,2.58,2.14,5,2.14,2.14,0,3.51-1.3,3.51-2.88,0-1.86-1.62-3-4.69-4.32s-5.65-3-5.65-6.58c0-2.42,1.86-5.74,6.8-5.74a10.59,10.59,0,0,1,5.74,1.83.74.74,0,0,1,.19,1.06l-.78,1.18a.74.74,0,0,1-1.09.31,9.44,9.44,0,0,0-4.19-1.55c-2.6,0-3.5,1.64-3.5,2.79,0,1.77,1.36,2.85,3.94,3.91,3.6,1.46,6.67,3.17,6.67,6.95,0,3.23-2.89,5.87-6.92,5.87a10,10,0,0,1-6.67-2.45A.66.66,0,0,1,203.91,328.78Z"/><path class="cls-1" d="M225.08,310.78a.61.61,0,0,1,.59-.59h2.05a.61.61,0,0,1,.59.59v20.55a.61.61,0,0,1-.59.59h-2.05a.61.61,0,0,1-.59-.59Z"/><path class="cls-1" d="M237.43,310.44a.59.59,0,0,1,.59-.56h.78l13.47,15.58h0V310.78a.59.59,0,0,1,.59-.59h2a.61.61,0,0,1,.59.59v20.89a.59.59,0,0,1-.59.56h-.81l-13.47-16h0v15.12a.59.59,0,0,1-.59.59h-2a.61.61,0,0,1-.59-.59Z"/><path class="cls-1" d="M274.18,309.88a11.31,11.31,0,0,1,7.55,2.89.62.62,0,0,1,0,.87l-1.4,1.46c-.25.28-.5.24-.81,0a8.23,8.23,0,0,0-5.27-2.12,8.06,8.06,0,0,0,0,16.11,11,11,0,0,0,4.65-1.05v-3.48h-3a.57.57,0,0,1-.59-.56v-1.8a.57.57,0,0,1,.59-.59h5.65a.59.59,0,0,1,.56.59c0,2.49,0,5,0,7.51a.78.78,0,0,1-.25.5,15.52,15.52,0,0,1-7.7,2.05,11.18,11.18,0,0,1,0-22.35Z"/></g></g></svg>