<svg id="Layer_1" data-name="Layer 1" xmlns="http://www.w3.org/2000/svg" viewBox="0 0 300 155.76"><defs><style>.cls-1{fill:#00678c;}.cls-1,.cls-2{fill-rule:evenodd;}.cls-2{fill:#ce8b2c;}</style></defs><path class="cls-1" d="M-196.79,146.64h9.91V107.42l15.46,34.2c1.75,4.11,4.26,5.63,9.13,5.63s7.24-1.52,9-5.63l15.39-34.2v39.22h10V107.42c0-3.8-1.52-5.63-4.72-6.62-7.54-2.29-12.57-.31-14.85,4.79l-15.15,33.82-14.63-33.82c-2.21-5.1-7.31-7.08-14.92-4.79-3.13,1-4.65,2.82-4.65,6.62v39.22Zm77.15-31.91h10v21.56c-.07,1.21.38,4,5.8,4,2.82.08,21.48,0,21.63,0V114.58h10v35.26c0,8.68-10.76,10.58-15.77,10.66h-31.37v-6.62h31.45c6.4-.69,5.64-3.88,5.64-4.95v-2.59h-21.1c-9.82-.08-16.15-4.42-16.22-9.37V114.73Zm214-25c-6.09-.15-10.81.46-14.77,2.14-1.14.46-3,.46-3.12,1.9.61.61.68,1.6,1.22,2.44a17.62,17.62,0,0,0,4,4.64c1.6,1.22,3.2,2.44,4.87,3.51,3,1.82,6.32,2.89,9.21,4.72,1.68,1.07,3.35,2.44,5,3.58.85.61,1.37,1.6,2.44,2v-.23c-.53-.68-.69-1.67-1.22-2.44-.76-.76-1.52-1.45-2.29-2.21a35.88,35.88,0,0,0-7.92-7.69c-2.43-1.67-7.76-4-8.75-6.77l-.15-.16a30.53,30.53,0,0,0,5.25-1.22c2.59-.68,4.95-.53,7.61-1.21,1.22-.31,2.44-.69,3.66-1.07V91c-1.37-1.37-2.36-3.2-3.8-4.5A102.51,102.51,0,0,0,83,77.12c-2.36-1.53-5.41-2.52-7.92-3.81-.92-.46-2.44-.69-3-1.45C70.75,70.19,70,68,69,66c-2.2-4.19-4.34-8.84-6.24-13.25-1.37-3-2.21-5.94-3.88-8.68C51,31.12,42.5,23.28,29.4,15.58c-2.81-1.6-6.17-2.28-9.73-3.12L14,12.15c-1.22-.53-2.44-2-3.5-2.66C6.12,6.74-5.08.8-8.28,8.65c-2.06,4.95,3,9.82,4.78,12.34A36,36,0,0,1,.39,26.7c.51,1.29.68,2.66,1.21,4a90.71,90.71,0,0,0,4,10.21,38.46,38.46,0,0,0,2.82,4.72c.61.84,1.68,1.22,1.9,2.59C9.22,49.78,9.14,52.06,8.53,54c-2.74,8.6-1.67,19.26,2.21,25.58,1.22,1.91,4.1,6.1,8,4.5,3.43-1.37,2.66-5.72,3.65-9.52.23-.92.08-1.53.53-2.14v.16l3.13,6.32A43.42,43.42,0,0,0,36,89.07c1.82,1.38,3.27,3.74,5.56,4.57v-.23h-.15a8.56,8.56,0,0,0-1.76-1.52,37.57,37.57,0,0,1-4-4.57,99.32,99.32,0,0,1-8.53-13.86c-1.22-2.36-2.28-4.95-3.27-7.31-.46-.91-.46-2.29-1.22-2.74-1.14,1.67-2.82,3.12-3.66,5.18-1.45,3.27-1.6,7.31-2.13,11.5-.31.07-.17,0-.31.15-2.43-.61-3.27-3.12-4.18-5.25-2.29-5.41-2.67-14.09-.69-20.34.53-1.6,2.82-6.62,1.91-8.15-.46-1.44-2-2.28-2.82-3.42A31.23,31.23,0,0,1,8,38.2c-1.83-4.26-2.74-9-4.72-13.25A41.05,41.05,0,0,0-.53,19.09C-2,17-3.58,15.58-4.72,13.15c-.38-.84-.91-2.21-.3-3.13A1.22,1.22,0,0,1-4,9c1-.83,3.81.23,4.8.69a39.13,39.13,0,0,1,7.54,3.8c1.06.76,2.21,2.21,3.58,2.59h1.6c2.44.54,5.18.16,7.46.84a48.83,48.83,0,0,1,11,5.26A67.61,67.61,0,0,1,55.75,48.26c.91,1.75,1.29,3.35,2.13,5.17,1.6,3.74,3.58,7.54,5.18,11.2s3.12,7.24,5.41,10.21c1.14,1.6,5.71,2.43,7.76,3.27a54,54,0,0,1,5.26,2.14c2.59,1.6,5.18,3.42,7.61,5.18,1.22.91,5,2.81,5.26,4.33ZM16.7,23.57a12.17,12.17,0,0,0-3.12.38v.16h.15a24.17,24.17,0,0,0,2.44,3.12l1.75,3.66.15-.16a4.28,4.28,0,0,0,1.6-3.8,16.25,16.25,0,0,1-.91-1.6c-.46-.76-1.45-1.14-2.06-1.75Z" transform="translate(196.8 -4.74)"/><path class="cls-2" d="M-64.65,146.64H-36a21.69,21.69,0,0,0,9.14-1.9c4.34-2,6.4-4.64,6.4-8.15v-7.31c0-2.81-2.36-5.48-7.08-7.31A25,25,0,0,0-36,120.52H-48c-4,0-5.94-1.22-6.47-3.88a3.51,3.51,0,0,1-.08-.91v-4.5a3.18,3.18,0,0,1,.08-.83c.53-2.06,1.6-2.59,5.12-3h29.32V100.8H-48c-4,0-6.16.23-8.07.84-5.86,1.83-8.45,4.72-8.45,9.82v5.79c0,4.49,5,8.3,13.55,9.22.92.07,1.91.07,2.9.07h10.28a4.39,4.39,0,0,1,1.06.08c3.13.3,4.5.84,5.41,2a2.31,2.31,0,0,1,.76,1.83v5.78a3.34,3.34,0,0,1-1.37,2.36,7,7,0,0,1-4.27,1.37c-.38,0-.6.08-1,.08h-27.5ZM41.51,135.15c0,6.77,5.12,10.58,15.31,11.34,1,.08,1.9.15,2.89.15h25.9V140H59.49c-5.79,0-8-1.45-8-5V100.8h-10v34.35Zm-55.67.3V111.84c0-6,4.26-9.67,12.57-10.81.91-.08,1.82-.16,2.66-.16H20c1,0,1.83.08,2.82.16,8.3,1.14,12.48,4.79,12.48,10.81v23.61c0,4.87-1.75,7.46-5.86,9.22l9.74,8.83H27.65l-7.92-7.16-8,.46H1.07A23.53,23.53,0,0,1-4.72,146C-11,144.28-14.16,140.93-14.16,135.45Zm10.74-.53a9,9,0,0,0,.23,1c.53,2.74,3.12,4.26,7.08,4.26h9l-8.23-7.46h11.5l7.23,6.55a4.76,4.76,0,0,0,2.52-3.2,4.67,4.67,0,0,0,.07-1V112.45a4,4,0,0,0-.07-.91c-.54-2.59-3.12-4-7-4h-15c-4.42,0-7.31,1.91-7.31,5Z" transform="translate(196.8 -4.74)"/></svg>